<svg xmlns="http://www.w3.org/2000/svg" xmlns:xlink="http://www.w3.org/1999/xlink" width="500" zoomAndPan="magnify" viewBox="0 0 375 374.999991" height="500" preserveAspectRatio="xMidYMid meet" version="1.0"><defs><g/><clipPath id="1ba4f3ae58"><path d="M 66 125.40625 L 161 125.40625 L 161 233 L 66 233 Z M 66 125.40625 " clip-rule="nonzero"/></clipPath><clipPath id="e761b4ac40"><path d="M 49.351562 125.445312 L 199.351562 125.445312 L 199.351562 249.867188 L 49.351562 249.867188 Z M 49.351562 125.445312 " clip-rule="nonzero"/></clipPath></defs><g clip-path="url(#1ba4f3ae58)"><path fill="#5d5e61" d="M 75.855469 177.335938 L 99.839844 153.277344 L 93.234375 146.648438 L 66.511719 173.453125 L 66.511719 232.914062 L 152.300781 232.914062 L 152.300781 223.542969 L 75.855469 223.542969 Z M 114.375 125.445312 L 104.183594 135.667969 L 110.789062 142.292969 L 114.375 138.699219 L 154.265625 178.707031 L 160.871094 172.082031 L 114.375 125.445312 " fill-opacity="1" fill-rule="nonzero"/></g><g clip-path="url(#e761b4ac40)"><path fill="#c3922e" d="M 199.351562 249.867188 L 49.351562 249.867188 L 49.351562 166.242188 L 90.015625 125.445312 L 136.511719 172.082031 L 129.90625 178.707031 L 90.015625 138.699219 L 58.691406 170.125 L 58.691406 240.496094 L 199.351562 240.496094 L 199.351562 249.867188 " fill-opacity="1" fill-rule="nonzero"/></g><g fill="#5d5e61" fill-opacity="1"><g transform="translate(83.334205, 215.378203)"><g><path d="M 15.9375 -11.578125 L 15.9375 -7.453125 C 15.9375 -4.941406 15.320312 -3.007812 14.09375 -1.65625 C 12.863281 -0.3125 11.050781 0.359375 8.65625 0.359375 C 6.257812 0.359375 4.445312 -0.3125 3.21875 -1.65625 C 1.988281 -3.007812 1.375 -4.941406 1.375 -7.453125 L 1.375 -23.609375 C 1.375 -26.117188 1.988281 -28.046875 3.21875 -29.390625 C 4.445312 -30.742188 6.257812 -31.421875 8.65625 -31.421875 C 11.050781 -31.421875 12.863281 -30.742188 14.09375 -29.390625 C 15.320312 -28.046875 15.9375 -26.117188 15.9375 -23.609375 L 15.9375 -20.59375 L 11.3125 -20.59375 L 11.3125 -23.921875 C 11.3125 -25.046875 11.082031 -25.835938 10.625 -26.296875 C 10.164062 -26.753906 9.550781 -26.984375 8.78125 -26.984375 C 8.007812 -26.984375 7.394531 -26.753906 6.9375 -26.296875 C 6.476562 -25.835938 6.25 -25.046875 6.25 -23.921875 L 6.25 -7.140625 C 6.25 -6.015625 6.476562 -5.226562 6.9375 -4.78125 C 7.394531 -4.34375 8.007812 -4.125 8.78125 -4.125 C 9.550781 -4.125 10.164062 -4.34375 10.625 -4.78125 C 11.082031 -5.226562 11.3125 -6.015625 11.3125 -7.140625 L 11.3125 -11.578125 Z M 15.9375 -11.578125 "/></g></g></g><g fill="#5d5e61" fill-opacity="1"><g transform="translate(102.501254, 215.378203)"><g><path d="M 17.578125 0 L 12.640625 0 L 11.796875 -5.640625 L 5.8125 -5.640625 L 4.96875 0 L 0.484375 0 L 5.453125 -31.0625 L 12.609375 -31.0625 Z M 6.4375 -9.84375 L 11.140625 -9.84375 L 8.78125 -25.5625 Z M 6.4375 -9.84375 "/></g></g></g><g fill="#5d5e61" fill-opacity="1"><g transform="translate(122.600013, 215.378203)"><g><path d="M 9.09375 -17.3125 L 15.9375 -17.3125 L 15.9375 -7.453125 C 15.9375 -4.941406 15.320312 -3.007812 14.09375 -1.65625 C 12.863281 -0.3125 11.050781 0.359375 8.65625 0.359375 C 6.257812 0.359375 4.445312 -0.3125 3.21875 -1.65625 C 1.988281 -3.007812 1.375 -4.941406 1.375 -7.453125 L 1.375 -23.609375 C 1.375 -26.117188 1.988281 -28.046875 3.21875 -29.390625 C 4.445312 -30.742188 6.257812 -31.421875 8.65625 -31.421875 C 11.050781 -31.421875 12.863281 -30.742188 14.09375 -29.390625 C 15.320312 -28.046875 15.9375 -26.117188 15.9375 -23.609375 L 15.9375 -20.59375 L 11.3125 -20.59375 L 11.3125 -23.921875 C 11.3125 -25.046875 11.082031 -25.835938 10.625 -26.296875 C 10.164062 -26.753906 9.550781 -26.984375 8.78125 -26.984375 C 8.007812 -26.984375 7.394531 -26.753906 6.9375 -26.296875 C 6.476562 -25.835938 6.25 -25.046875 6.25 -23.921875 L 6.25 -7.140625 C 6.25 -6.015625 6.476562 -5.226562 6.9375 -4.78125 C 7.394531 -4.34375 8.007812 -4.125 8.78125 -4.125 C 9.550781 -4.125 10.164062 -4.34375 10.625 -4.78125 C 11.082031 -5.226562 11.3125 -6.015625 11.3125 -7.140625 L 11.3125 -12.875 L 9.09375 -12.875 Z M 9.09375 -17.3125 "/></g></g></g><g fill="#5d5e61" fill-opacity="1"><g transform="translate(141.944526, 215.378203)"><g/></g></g><g fill="#5d5e61" fill-opacity="1"><g transform="translate(150.862764, 215.378203)"><g><path d="M 8.96875 -31.0625 C 11.414062 -31.0625 13.238281 -30.410156 14.4375 -29.109375 C 15.632812 -27.804688 16.234375 -25.898438 16.234375 -23.390625 L 16.234375 -19.34375 C 16.234375 -16.832031 15.632812 -14.925781 14.4375 -13.625 C 13.238281 -12.320312 11.414062 -11.671875 8.96875 -11.671875 L 6.65625 -11.671875 L 6.65625 0 L 1.78125 0 L 1.78125 -31.0625 Z M 6.65625 -26.625 L 6.65625 -16.109375 L 8.96875 -16.109375 C 9.738281 -16.109375 10.328125 -16.3125 10.734375 -16.71875 C 11.148438 -17.132812 11.359375 -17.90625 11.359375 -19.03125 L 11.359375 -23.703125 C 11.359375 -24.816406 11.148438 -25.582031 10.734375 -26 C 10.328125 -26.414062 9.738281 -26.625 8.96875 -26.625 Z M 6.65625 -26.625 "/></g></g></g><g fill="#5d5e61" fill-opacity="1"><g transform="translate(169.630507, 215.378203)"><g><path d="M 11.984375 0 C 11.921875 -0.207031 11.859375 -0.398438 11.796875 -0.578125 C 11.742188 -0.753906 11.691406 -0.972656 11.640625 -1.234375 C 11.597656 -1.503906 11.566406 -1.847656 11.546875 -2.265625 C 11.535156 -2.679688 11.53125 -3.195312 11.53125 -3.8125 L 11.53125 -8.703125 C 11.53125 -10.148438 11.28125 -11.164062 10.78125 -11.75 C 10.28125 -12.34375 9.46875 -12.640625 8.34375 -12.640625 L 6.65625 -12.640625 L 6.65625 0 L 1.78125 0 L 1.78125 -31.0625 L 9.140625 -31.0625 C 11.679688 -31.0625 13.519531 -30.46875 14.65625 -29.28125 C 15.800781 -28.101562 16.375 -26.316406 16.375 -23.921875 L 16.375 -21.484375 C 16.375 -18.285156 15.304688 -16.179688 13.171875 -15.171875 C 14.421875 -14.671875 15.273438 -13.847656 15.734375 -12.703125 C 16.191406 -11.566406 16.421875 -10.1875 16.421875 -8.5625 L 16.421875 -3.765625 C 16.421875 -3.003906 16.445312 -2.332031 16.5 -1.75 C 16.5625 -1.175781 16.710938 -0.59375 16.953125 0 Z M 6.65625 -26.625 L 6.65625 -17.078125 L 8.5625 -17.078125 C 9.476562 -17.078125 10.195312 -17.3125 10.71875 -17.78125 C 11.238281 -18.257812 11.5 -19.125 11.5 -20.375 L 11.5 -23.4375 C 11.5 -24.550781 11.296875 -25.359375 10.890625 -25.859375 C 10.492188 -26.367188 9.867188 -26.625 9.015625 -26.625 Z M 6.65625 -26.625 "/></g></g></g><g fill="#5d5e61" fill-opacity="1"><g transform="translate(189.507422, 215.378203)"><g><path d="M 6.25 -7.140625 C 6.25 -6.015625 6.476562 -5.222656 6.9375 -4.765625 C 7.394531 -4.304688 8.007812 -4.078125 8.78125 -4.078125 C 9.550781 -4.078125 10.164062 -4.304688 10.625 -4.765625 C 11.082031 -5.222656 11.3125 -6.015625 11.3125 -7.140625 L 11.3125 -23.921875 C 11.3125 -25.046875 11.082031 -25.835938 10.625 -26.296875 C 10.164062 -26.753906 9.550781 -26.984375 8.78125 -26.984375 C 8.007812 -26.984375 7.394531 -26.753906 6.9375 -26.296875 C 6.476562 -25.835938 6.25 -25.046875 6.25 -23.921875 Z M 1.375 -23.609375 C 1.375 -26.117188 2.007812 -28.046875 3.28125 -29.390625 C 4.550781 -30.742188 6.382812 -31.421875 8.78125 -31.421875 C 11.175781 -31.421875 13.007812 -30.742188 14.28125 -29.390625 C 15.5625 -28.046875 16.203125 -26.117188 16.203125 -23.609375 L 16.203125 -7.453125 C 16.203125 -4.941406 15.5625 -3.007812 14.28125 -1.65625 C 13.007812 -0.3125 11.175781 0.359375 8.78125 0.359375 C 6.382812 0.359375 4.550781 -0.3125 3.28125 -1.65625 C 2.007812 -3.007812 1.375 -4.941406 1.375 -7.453125 Z M 1.375 -23.609375 "/></g></g></g><g fill="#5d5e61" fill-opacity="1"><g transform="translate(209.118131, 215.378203)"><g><path d="M 8.96875 -31.0625 C 11.414062 -31.0625 13.238281 -30.410156 14.4375 -29.109375 C 15.632812 -27.804688 16.234375 -25.898438 16.234375 -23.390625 L 16.234375 -19.34375 C 16.234375 -16.832031 15.632812 -14.925781 14.4375 -13.625 C 13.238281 -12.320312 11.414062 -11.671875 8.96875 -11.671875 L 6.65625 -11.671875 L 6.65625 0 L 1.78125 0 L 1.78125 -31.0625 Z M 6.65625 -26.625 L 6.65625 -16.109375 L 8.96875 -16.109375 C 9.738281 -16.109375 10.328125 -16.3125 10.734375 -16.71875 C 11.148438 -17.132812 11.359375 -17.90625 11.359375 -19.03125 L 11.359375 -23.703125 C 11.359375 -24.816406 11.148438 -25.582031 10.734375 -26 C 10.328125 -26.414062 9.738281 -26.625 8.96875 -26.625 Z M 6.65625 -26.625 "/></g></g></g><g fill="#5d5e61" fill-opacity="1"><g transform="translate(227.885868, 215.378203)"><g><path d="M 6.65625 -17.96875 L 13.359375 -17.96875 L 13.359375 -13.53125 L 6.65625 -13.53125 L 6.65625 -4.4375 L 15.09375 -4.4375 L 15.09375 0 L 1.78125 0 L 1.78125 -31.0625 L 15.09375 -31.0625 L 15.09375 -26.625 L 6.65625 -26.625 Z M 6.65625 -17.96875 "/></g></g></g><g fill="#5d5e61" fill-opacity="1"><g transform="translate(246.254298, 215.378203)"><g><path d="M 11.984375 0 C 11.921875 -0.207031 11.859375 -0.398438 11.796875 -0.578125 C 11.742188 -0.753906 11.691406 -0.972656 11.640625 -1.234375 C 11.597656 -1.503906 11.566406 -1.847656 11.546875 -2.265625 C 11.535156 -2.679688 11.53125 -3.195312 11.53125 -3.8125 L 11.53125 -8.703125 C 11.53125 -10.148438 11.28125 -11.164062 10.78125 -11.75 C 10.28125 -12.34375 9.46875 -12.640625 8.34375 -12.640625 L 6.65625 -12.640625 L 6.65625 0 L 1.78125 0 L 1.78125 -31.0625 L 9.140625 -31.0625 C 11.679688 -31.0625 13.519531 -30.46875 14.65625 -29.28125 C 15.800781 -28.101562 16.375 -26.316406 16.375 -23.921875 L 16.375 -21.484375 C 16.375 -18.285156 15.304688 -16.179688 13.171875 -15.171875 C 14.421875 -14.671875 15.273438 -13.847656 15.734375 -12.703125 C 16.191406 -11.566406 16.421875 -10.1875 16.421875 -8.5625 L 16.421875 -3.765625 C 16.421875 -3.003906 16.445312 -2.332031 16.5 -1.75 C 16.5625 -1.175781 16.710938 -0.59375 16.953125 0 Z M 6.65625 -26.625 L 6.65625 -17.078125 L 8.5625 -17.078125 C 9.476562 -17.078125 10.195312 -17.3125 10.71875 -17.78125 C 11.238281 -18.257812 11.5 -19.125 11.5 -20.375 L 11.5 -23.4375 C 11.5 -24.550781 11.296875 -25.359375 10.890625 -25.859375 C 10.492188 -26.367188 9.867188 -26.625 9.015625 -26.625 Z M 6.65625 -26.625 "/></g></g></g><g fill="#5d5e61" fill-opacity="1"><g transform="translate(266.131219, 215.378203)"><g><path d="M 0.4375 -31.0625 L 15.53125 -31.0625 L 15.53125 -26.625 L 10.421875 -26.625 L 10.421875 0 L 5.546875 0 L 5.546875 -26.625 L 0.4375 -26.625 Z M 0.4375 -31.0625 "/></g></g></g><g fill="#5d5e61" fill-opacity="1"><g transform="translate(284.144722, 215.378203)"><g><path d="M 6.34375 -10.296875 L 0.171875 -31.0625 L 5.28125 -31.0625 L 9.015625 -16.90625 L 12.734375 -31.0625 L 17.390625 -31.0625 L 11.234375 -10.296875 L 11.234375 0 L 6.34375 0 Z M 6.34375 -10.296875 "/></g></g></g><g fill="#c3922e" fill-opacity="1"><g transform="translate(163.8569, 233.079705)"><g><path d="M 11.71875 0 L 10.1875 0 L 10.171875 -7.375 L 7.0625 -1.03125 L 5.96875 -1.03125 L 2.859375 -7.375 L 2.859375 0 L 1.296875 0 L 1.296875 -9.859375 L 3.265625 -9.859375 L 6.53125 -3.3125 L 9.765625 -9.859375 L 11.71875 -9.859375 Z M 11.71875 0 "/></g></g></g><g fill="#c3922e" fill-opacity="1"><g transform="translate(178.660414, 233.079705)"><g><path d="M 7.671875 -2.234375 L 2.6875 -2.234375 L 1.75 0 L 0.015625 0 L 4.375 -9.859375 L 6.078125 -9.859375 L 10.390625 0 L 8.609375 0 Z M 7.03125 -3.703125 L 5.171875 -8.09375 L 3.3125 -3.703125 Z M 7.03125 -3.703125 "/></g></g></g><g fill="#c3922e" fill-opacity="1"><g transform="translate(190.830327, 233.079705)"><g><path d="M 9.84375 0 L 8.21875 0 L 2.953125 -7.078125 L 2.953125 0 L 1.296875 0 L 1.296875 -9.859375 L 2.9375 -9.859375 L 8.21875 -2.78125 L 8.21875 -9.859375 L 9.84375 -9.859375 Z M 9.84375 0 "/></g></g></g><g fill="#c3922e" fill-opacity="1"><g transform="translate(203.760745, 233.079705)"><g><path d="M 7.671875 -2.234375 L 2.6875 -2.234375 L 1.75 0 L 0.015625 0 L 4.375 -9.859375 L 6.078125 -9.859375 L 10.390625 0 L 8.609375 0 Z M 7.03125 -3.703125 L 5.171875 -8.09375 L 3.3125 -3.703125 Z M 7.03125 -3.703125 "/></g></g></g><g fill="#c3922e" fill-opacity="1"><g transform="translate(215.930658, 233.079705)"><g><path d="M 8.046875 -4.84375 L 9.5 -4.84375 L 9.5 -1.21875 C 8.988281 -0.832031 8.390625 -0.519531 7.703125 -0.28125 C 7.015625 -0.0390625 6.335938 0.078125 5.671875 0.078125 C 4.210938 0.078125 2.984375 -0.398438 1.984375 -1.359375 C 0.984375 -2.328125 0.484375 -3.515625 0.484375 -4.921875 C 0.484375 -6.335938 0.988281 -7.519531 2 -8.46875 C 3.007812 -9.425781 4.265625 -9.90625 5.765625 -9.90625 C 6.460938 -9.90625 7.144531 -9.78125 7.8125 -9.53125 C 8.488281 -9.28125 9.070312 -8.945312 9.5625 -8.53125 L 8.609375 -7.296875 C 7.804688 -8.046875 6.859375 -8.421875 5.765625 -8.421875 C 4.753906 -8.421875 3.898438 -8.082031 3.203125 -7.40625 C 2.515625 -6.738281 2.171875 -5.914062 2.171875 -4.9375 C 2.171875 -3.945312 2.519531 -3.113281 3.21875 -2.4375 C 3.914062 -1.757812 4.769531 -1.421875 5.78125 -1.421875 C 6.539062 -1.421875 7.296875 -1.644531 8.046875 -2.09375 Z M 8.046875 -4.84375 "/></g></g></g><g fill="#c3922e" fill-opacity="1"><g transform="translate(228.255479, 233.079705)"><g><path d="M 8.34375 -8.375 L 2.953125 -8.375 L 2.953125 -5.703125 L 7.78125 -5.703125 L 7.78125 -4.21875 L 2.953125 -4.21875 L 2.953125 -1.5 L 8.515625 -1.5 L 8.515625 0 L 1.296875 0 L 1.296875 -9.859375 L 8.34375 -9.859375 Z M 8.34375 -8.375 "/></g></g></g><g fill="#c3922e" fill-opacity="1"><g transform="translate(239.270548, 233.079705)"><g><path d="M 11.71875 0 L 10.1875 0 L 10.171875 -7.375 L 7.0625 -1.03125 L 5.96875 -1.03125 L 2.859375 -7.375 L 2.859375 0 L 1.296875 0 L 1.296875 -9.859375 L 3.265625 -9.859375 L 6.53125 -3.3125 L 9.765625 -9.859375 L 11.71875 -9.859375 Z M 11.71875 0 "/></g></g></g><g fill="#c3922e" fill-opacity="1"><g transform="translate(254.074059, 233.079705)"><g><path d="M 8.34375 -8.375 L 2.953125 -8.375 L 2.953125 -5.703125 L 7.78125 -5.703125 L 7.78125 -4.21875 L 2.953125 -4.21875 L 2.953125 -1.5 L 8.515625 -1.5 L 8.515625 0 L 1.296875 0 L 1.296875 -9.859375 L 8.34375 -9.859375 Z M 8.34375 -8.375 "/></g></g></g><g fill="#c3922e" fill-opacity="1"><g transform="translate(265.089128, 233.079705)"><g><path d="M 9.84375 0 L 8.21875 0 L 2.953125 -7.078125 L 2.953125 0 L 1.296875 0 L 1.296875 -9.859375 L 2.9375 -9.859375 L 8.21875 -2.78125 L 8.21875 -9.859375 L 9.84375 -9.859375 Z M 9.84375 0 "/></g></g></g><g fill="#c3922e" fill-opacity="1"><g transform="translate(278.019544, 233.079705)"><g><path d="M 8.03125 -8.375 L 4.90625 -8.375 L 4.90625 0 L 3.234375 0 L 3.234375 -8.375 L 0.125 -8.375 L 0.125 -9.859375 L 8.03125 -9.859375 Z M 8.03125 -8.375 "/></g></g></g></svg>